Coordinates
version=1
nRows=18
nColumns=22
inDegrees=yes

Units are S.I. units (second, meters, Newtons, ...)
If the header above contains a line with 'inDegrees', this indicates whether rotational values are in degrees (yes) or radians (no).

endheader
time	pelvis_tilt	pelvis_list	pelvis_rotation	pelvis_tx	pelvis_ty	pelvis_tz	hip_flexion_r	hip_adduction_r	hip_rotation_r	knee_angle_r	ankle_angle_r	subtalar_angle_r	hip_flexion_l	hip_adduction_l	hip_rotation_l	knee_angle_l	ankle_angle_l	subtalar_angle_l	lumbar_extension	lumbar_bending	lumbar_rotation
      4.12000000	     -0.06984730	     -0.43485234	    -86.91811419	      0.27871803	      1.00225683	      0.74525765	     -4.48358777	     -3.49931615	      5.40517550	    -42.20602259	     -3.47197371	     18.34676314	     17.11627731	     -5.40808094	     -0.02104482	    -20.47697725	      3.36979662	      4.10355437	      0.46505775	     -2.25258542	      4.19847743
      4.13000000	      0.39179893	     -0.28467171	    -87.51869873	      0.28253986	      1.00254496	      0.75192370	     -2.97391088	     -4.48955159	      4.54314556	    -44.48843071	     -3.35344848	     18.00335628	     16.73424839	     -4.78515358	     -0.70176724	    -20.53423846	      3.69787821	      3.36923304	      0.49649228	     -2.75477634	      4.06187061
      4.14000000	      0.84330609	     -0.15536267	    -88.08658974	      0.28624915	      1.00286230	      0.75840090	     -1.48266925	     -5.44359957	      3.76999340	    -46.62467211	     -3.01813134	     17.29378310	     16.35225875	     -4.16153538	     -1.30442730	    -20.57315030	      4.02873307	      2.68224137	      0.49581157	     -3.23821221	      3.88635444
      4.15000000	      1.25849147	     -0.05658941	    -88.62401126	      0.28978980	      1.00325479	      0.76468411	     -0.03847487	     -6.30537388	      3.12603778	    -48.57093049	     -2.51241470	     16.26247349	     15.96436576	     -3.57152788	     -1.83334135	    -20.60094429	      4.35558444	      2.11146461	      0.45392341	     -3.67843137	      3.66977813
      4.16000000	      1.60231377	      0.01857473	    -89.13412398	      0.29311509	      1.00373808	      0.77075840	      1.35407737	     -7.01796950	      2.61461909	    -50.29344984	     -1.89303616	     14.94592889	     15.58316704	     -3.05662419	     -2.29185068	    -20.62701827	      4.66153075	      1.61680291	      0.37899960	     -4.04055687	      3.42136193
      4.17000000	      1.85876881	      0.08170471	    -89.62062867	      0.29619775	      1.00431494	      0.77661998	      2.70073478	     -7.54947980	      2.22924906	    -51.77872883	     -1.20164399	     13.45868304	     15.21715977	     -2.63815708	     -2.70102204	    -20.64912521	      4.94718177	      1.18459862	      0.28559676	     -4.30903600	      3.14842823
      4.18000000	      2.01160786	      0.13567158	    -90.08940049	      0.29902470	      1.00498466	      0.78223199	      4.00402428	     -7.87261865	      1.95558531	    -53.02600199	     -0.44438920	     11.88641866	     14.86629144	     -2.33190834	     -3.03756746	    -20.66814055	      5.21626957	      0.78636328	      0.16938595	     -4.46891421	      2.88782425
      4.19000000	      2.07045201	      0.19186268	    -90.54565457	      0.30158671	      1.00574350	      0.78764234	      5.26405381	     -7.99010187	      1.78710729	    -54.02768242	      0.37315690	     10.35659771	     14.51681424	     -2.13130253	     -3.33353601	    -20.64492479	      5.45489960	      0.41369991	      0.05480838	     -4.52975849	      2.62223620
      4.20000000	      2.05836519	      0.25518437	    -90.99704342	      0.30389443	      1.00656149	      0.79280331	      6.49616564	     -7.93605847	      1.69561851	    -54.80104330	      1.22718521	      8.97416534	     14.18200905	     -2.01617183	     -3.61240521	    -20.59944767	      5.66445903	      0.05874533	     -0.06757952	     -4.52007242	      2.38035754
      4.21000000	      1.97904337	      0.31295697	    -91.42536266	      0.30599795	      1.00744306	      0.79774728	      7.66814309	     -7.72414622	      1.63759163	    -55.33439741	      2.12036153	      7.75776086	     13.84420108	     -1.98094113	     -3.88785124	    -20.52721867	      5.85912492	     -0.29134810	     -0.21118378	     -4.43984166	      2.12248401
      4.22000000	      1.86692506	      0.38317354	    -91.85439561	      0.30788324	      1.00834909	      0.80251498	      8.80165247	     -7.40201623	      1.61826173	    -55.63561036	      3.05076123	      6.77988993	     13.49856447	     -1.99409387	     -4.18355447	    -20.39607406	      6.03877570	     -0.61261701	     -0.34582362	     -4.32967896	      1.89097398
      4.23000000	      1.72681078	      0.45340817	    -92.25198726	      0.30961620	      1.00927607	      0.80707040	      9.87461083	     -6.99147073	      1.59010291	    -55.70629174	      3.99791669	      5.93574613	     13.14287873	     -2.03829009	     -4.43150789	    -20.22018407	      6.16411073	     -0.93101675	     -0.50046999	     -4.19534375	      1.64590964
      4.24000000	      1.58178206	      0.53451776	    -92.63871849	      0.31119559	      1.01020722	      0.81152561	     10.88762729	     -6.54114023	      1.54120773	    -55.53805230	      4.97291126	      5.31857981	     12.76695526	     -2.09939323	     -4.71134076	    -19.97287201	      6.27468961	     -1.19863967	     -0.64035085	     -4.06001402	      1.41271438
      4.25000000	      1.44075132	      0.61841929	    -92.99421567	      0.31266642	      1.01113603	      0.81582378	     11.82954350	     -6.06940547	      1.46511542	    -55.13683019	      5.96496277	      4.88797850	     12.38086950	     -2.16020254	     -4.99183784	    -19.67900165	      6.35777305	     -1.40992515	     -0.79079632	     -3.93105679	      1.14618741
      4.26000000	      1.28964713	      0.73652105	    -93.32819628	      0.31403206	      1.01204240	      0.82006307	     12.71746626	     -5.57869212	      1.33735044	    -54.48913273	      6.91947985	      4.50979501	     11.98630370	     -2.23245465	     -5.24537895	    -19.28916260	      6.38246205	     -1.65480245	     -0.89397032	     -3.79366473	      0.91328654
      4.27000000	      1.14793388	      0.85093909	    -93.61286125	      0.31534087	      1.01294595	      0.82421084	     13.50476450	     -5.10432047	      1.15144957	    -53.60694656	      7.90299147	      4.33769866	     11.58129805	     -2.29700708	     -5.52163524	    -18.86282849	      6.40691539	     -1.78122681	     -1.00394600	     -3.66798881	      0.62329362
      4.28000000	      0.98778667	      0.97800718	    -93.86711288	      0.31656019	      1.01383330	      0.82827902	     14.20538112	     -4.61498780	      0.91842150	    -52.49312457	      8.85107808	      4.23372551	     11.17154340	     -2.38275062	     -5.79797223	    -18.38651574	      6.41569314	     -1.93316646	     -1.09488303	     -3.52261706	      0.33240561
      4.29000000	      0.80381972	      1.09738238	    -94.07323334	      0.31771895	      1.01474412	      0.83227961	     14.78166634	     -4.10920025	      0.64131863	    -51.14396453	      9.75602169	      4.24181485	     10.73674738	     -2.48741410	     -6.03804453	    -17.85954027	      6.39616351	     -2.11637816	     -1.18802954	     -3.35327020	      0.02236619
